<svg width="137" height="18" viewBox="0 0 137 18" fill="none" xmlns="http://www.w3.org/2000/svg">
<path d="M8.5935e-05 17.5654V16.858L2.35664 16.6066H2.7692L5.36348 16.858V17.5654H8.5935e-05ZM1.76241 17.5654L7.59092 -0.000156879H8.76196L14.6888 17.5654H12.8174L7.48246 1.27721H7.96473L7.87101 1.61321L2.73032 17.5654H1.76241ZM4.34181 11.5516L4.40576 10.7985H11.6387L11.7027 11.5516H4.34181ZM9.80362 17.5654V16.8558L13.0025 16.6044H13.5782L16.6627 16.8558V17.5654H9.80362ZM29.5828 17.9368C28.3661 17.9368 27.2985 17.7041 26.3801 17.2385C25.4617 16.773 24.7499 16.0313 24.2448 15.0135C23.7397 13.9956 23.4871 12.6585 23.4871 11.0022V8.23412C23.4871 6.87564 23.4867 5.52288 23.486 4.17584C23.4852 2.8288 23.4681 1.48977 23.4345 0.158727H25.3562C25.3402 1.47529 25.3282 2.80632 25.3202 4.15184C25.3122 5.49736 25.3082 6.85812 25.3082 8.23412V10.6422C25.3082 12.1271 25.4935 13.3168 25.8642 14.2113C26.2349 15.1058 26.7684 15.7491 27.4648 16.1411C28.1612 16.5331 28.9799 16.7291 29.9208 16.7291C31.588 16.7291 32.8164 16.2281 33.6061 15.2262C34.3958 14.2242 34.7892 12.5701 34.7861 10.2638L34.777 0.158727H35.6775L35.6467 10.8114C35.6436 13.2158 35.1248 15.0045 34.0901 16.1775C33.0555 17.3504 31.5531 17.9368 29.5828 17.9368ZM21.1339 0.866124V0.158727H28.0054V0.866124L24.7427 1.11752H24.2617L21.1339 0.866124ZM31.8455 0.866124V0.158727H37.9974V0.866124L35.3941 1.1198H34.9301L31.8455 0.866124ZM44.6231 17.5654V16.858L47.8572 16.5826H48.3451L51.5986 16.858V17.5654H44.6231ZM47.1283 17.5654C47.1603 16.2329 47.1767 14.8988 47.1774 13.5632C47.1782 12.2276 47.1786 10.884 47.1786 9.5324V8.19403C47.1786 6.84244 47.1782 5.4956 47.1774 4.15352C47.1767 2.81144 47.1603 1.47984 47.1283 0.158727H49.0671C49.0336 1.47681 49.0128 2.82974 49.0048 4.21754C48.9968 5.60534 48.9928 7.1484 48.9928 8.84673V9.3038C48.9928 10.7598 48.9968 12.1668 49.0048 13.5249C49.0128 14.883 49.0336 16.2298 49.0671 17.5654H47.1283ZM57.9461 17.7734C57.1897 17.7734 56.6414 17.6578 56.3013 17.4266C55.9612 17.1954 55.7271 16.8235 55.5991 16.3109L54.3166 12.1083C54.1322 11.4378 53.9151 10.9083 53.6652 10.5198C53.4152 10.1312 53.0777 9.85064 52.6525 9.67808C52.2274 9.50552 51.6521 9.41924 50.9267 9.41924H48.1154V8.68329H51.6229C52.5189 8.68329 53.2896 8.50691 53.9349 8.15415C54.5803 7.80139 55.0777 7.32139 55.427 6.71415C55.7764 6.10691 55.9511 5.42804 55.9511 4.67756C55.9511 3.52253 55.5956 2.61091 54.8847 1.9427C54.1739 1.2745 53.0656 0.940403 51.56 0.940403H48.1108V0.158727H51.7666C53.6744 0.158727 55.1448 0.547487 56.1779 1.32501C57.211 2.10253 57.7276 3.21777 57.7276 4.67073C57.7276 5.46465 57.5268 6.19323 57.1253 6.85647C56.7238 7.51971 56.1292 8.06447 55.3414 8.49075C54.5536 8.91703 53.5812 9.17093 52.424 9.25245V9.02961C53.2025 9.09209 53.8215 9.24027 54.2812 9.47415C54.741 9.70802 55.1077 10.0421 55.3816 10.4763C55.6555 10.9105 55.8942 11.4678 56.0976 12.1481L57.6807 17.1105L56.857 16.6592L59.8899 16.858V17.5654C59.6545 17.6195 59.3767 17.6677 59.0563 17.71C58.7359 17.7522 58.3659 17.7734 57.9461 17.7734ZM44.6231 0.866124V0.158727H48.1108V1.11752H47.8572L44.6231 0.866124ZM66.4151 17.5654V16.858L69.6492 16.5826H69.9028V17.5654H66.4151ZM68.9203 17.5654C68.9523 16.2329 68.9687 14.8988 68.9694 13.5632C68.9702 12.2276 68.9706 10.884 68.9706 9.5324V8.19403C68.9706 6.84244 68.9702 5.4956 68.9694 4.15352C68.9687 2.81144 68.9523 1.47984 68.9203 0.158727H70.8636C70.8461 1.47681 70.8334 2.81888 70.8254 4.18496C70.8174 5.55104 70.8134 6.98456 70.8134 8.48552V8.99059C70.8134 10.6104 70.8174 12.1106 70.8254 13.4912C70.8334 14.8718 70.8461 16.2298 70.8636 17.5654H68.9203ZM69.9028 17.5654V16.7598H78.8433L77.9305 17.3242L78.6469 13.2708H79.6216L79.4307 17.5654H69.9028ZM69.9028 9.1358V8.33696H75.6399V9.1358H69.9028ZM75.5017 11.601L75.1828 8.93696V8.43296L75.5017 5.8364H76.289V11.601H75.5017ZM66.4151 0.866124V0.158727H69.9028V1.11752H69.6492L66.4151 0.866124ZM78.2275 4.41343L77.5157 0.354212L78.4456 0.986124H69.9028V0.158727H79.0136L79.2068 4.41343H78.2275ZM86.7911 17.5654L86.7933 16.858L90.0252 16.5826H90.2811L90.2788 17.5654H86.7911ZM89.2963 17.5654C89.3283 16.2329 89.3447 14.9051 89.3454 13.582C89.3462 12.259 89.3466 10.9514 89.3466 9.65911V8.19403C89.3466 6.84244 89.3462 5.49522 89.3454 4.15238C89.3447 2.80954 89.3283 1.47832 89.2963 0.158727H91.2396C91.2221 1.47681 91.2094 2.82422 91.2014 4.20098C91.1934 5.57774 91.1894 7.04865 91.1894 8.6137V9.97821C91.1894 11.1035 91.1934 12.3154 91.2014 13.6141C91.2094 14.9127 91.2221 16.2298 91.2396 17.5654H89.2963ZM90.2788 17.5654L90.2811 16.7598H98.5941L97.7487 17.3002L98.5131 12.9931H99.5073L99.3164 17.5654H90.2788ZM86.7911 0.866124V0.158727H93.8066V0.866124L90.5245 1.11752H90.0252L86.7911 0.866124ZM106.207 17.5654V16.858L109.441 16.5826H109.925L113.183 16.858V17.5654H106.207ZM108.712 17.5654C108.746 16.2329 108.763 14.8988 108.764 13.5632C108.764 12.2276 108.765 10.884 108.765 9.5324V8.19403C108.765 6.84244 108.764 5.4956 108.764 4.15352C108.763 2.81144 108.746 1.47984 108.712 0.158727H110.658C110.64 1.47681 110.628 2.80764 110.62 4.15124C110.612 5.49484 110.608 6.84244 110.608 8.19403V9.53012C110.608 10.8802 110.612 12.223 110.62 13.5586C110.628 14.8942 110.64 16.2298 110.658 17.5654H108.712ZM106.207 0.866124V0.158727H113.183V0.866124L109.925 1.11752H109.441L106.207 0.866124ZM119.568 17.5654V16.858L121.925 16.6066H122.337L124.931 16.858V17.5654H119.568ZM121.33 17.5654L127.159 -0.000156879H128.33L134.257 17.5654H132.385L127.05 1.27721H127.533L127.439 1.61321L122.298 17.5654H121.33ZM123.91 11.5516L123.974 10.7985H131.207L131.271 11.5516H123.91ZM129.372 17.5654V16.8558L132.57 16.6044H133.146L136.231 16.8558V17.5654H129.372Z" fill="#745A27"/>
</svg>
